<?xml version="1.0" encoding="UTF-8"?>
<svg id="Laag_1" data-name="Laag 1" xmlns="http://www.w3.org/2000/svg" xmlns:xlink="http://www.w3.org/1999/xlink" viewBox="0 0 95.47 95.47">
  <defs>
    <style>
      .cls-1 {
        fill: #fff;
      }

      .cls-2 {
        fill: none;
      }

      .cls-3 {
        fill: #b689f2;
      }

      .cls-4 {
        clip-path: url(#clippath);
      }
    </style>
    <clipPath id="clippath">
      <rect class="cls-2" x="13.32" y="32.47" width="68.82" height="30.53"/>
    </clipPath>
  </defs>
  <rect y="0" width="95.47" height="95.47" rx="9.5" ry="9.5"/>
  <g id="Group_4" data-name="Group 4">
    <g class="cls-4">
      <g id="Group_3" data-name="Group 3">
        <path id="Path_11" data-name="Path 11" class="cls-1" d="M41.59,49.77c-1.02-1.31-2.39-2.3-3.95-2.86-.07-.03-.14-.05-.22-.07,1.14-.57,2.13-1.41,2.88-2.44.84-1.18,1.29-2.61,1.27-4.06.02-2.26-1.1-4.38-2.97-5.65-1.98-1.48-5.05-2.22-9.2-2.22H13.32v30.1h16.94c4.16,0,7.32-.73,9.48-2.19,2.09-1.32,3.32-3.64,3.25-6.11.04-1.61-.45-3.19-1.4-4.49M23.3,39.56h4.73c.88-.06,1.75.13,2.51.56.54.38.84,1.02.8,1.67.03.65-.27,1.27-.8,1.66-.76.45-1.64.65-2.52.58h-4.73v-4.47ZM31.92,54.87c-.76.45-1.63.66-2.51.6h-6.11v-4.73h6.1c.88-.06,1.76.15,2.51.6.56.4.88,1.07.84,1.76.04.69-.28,1.36-.84,1.76"/>
        <path id="Path_12" data-name="Path 12" class="cls-1" d="M69.49,44.08c-1.16-1.78-2.8-3.19-4.73-4.08-2.01-.93-4.21-1.4-6.43-1.38-2.36-.04-4.7.49-6.82,1.55-1.95.97-3.6,2.46-4.77,4.3-1.18,1.89-1.78,4.09-1.74,6.32-.03,2.21.58,4.39,1.76,6.26,1.22,1.89,2.94,3.4,4.97,4.36,4.28,1.88,9.11,2.1,13.54.62,1.61-.6,3.06-1.56,4.24-2.81l-5.07-5.12c-.68.52-1.43.96-2.22,1.29-.86.31-1.77.46-2.68.43-.93.03-1.86-.16-2.71-.54-.73-.34-1.33-.91-1.72-1.61-.11-.19-.2-.39-.28-.6h16.32c.03-.34.06-.73.08-1.14s.04-.8.04-1.14c.08-2.36-.54-4.7-1.79-6.71M54.62,48.38c.07-.38.19-.75.36-1.09.29-.62.76-1.15,1.35-1.51.63-.37,1.36-.56,2.09-.54.72-.02,1.44.17,2.06.54.58.37,1.05.89,1.35,1.51.18.35.3.71.38,1.09h-7.59Z"/>
        <path id="Path_13" data-name="Path 13" class="cls-3" d="M78.21,62.86c-1.04.03-2.05-.37-2.8-1.09-.76-.73-1.17-1.74-1.13-2.79-.04-1.05.37-2.06,1.13-2.77,1.61-1.39,4-1.39,5.61,0,.76.72,1.18,1.73,1.13,2.77.03,1.05-.38,2.06-1.13,2.79-.75.72-1.76,1.12-2.8,1.09"/>
      </g>
    </g>
  </g>
</svg>