<?xml version="1.0" encoding="UTF-8"?>
<svg id="Laag_1" data-name="Laag 1" xmlns="http://www.w3.org/2000/svg" viewBox="0 0 95.47 95.47">
  <defs>
    <style>
      .cls-1 {
        fill: #fff;
      }

      .cls-2 {
        fill: #b689f2;
      }
    </style>
  </defs>
  <rect width="95.47" height="95.47" rx="9.5" ry="9.5"/>
  <g id="Group_4" data-name="Group 4">
    <g id="Group_3" data-name="Group 3">
      <path id="Path_11" data-name="Path 11" class="cls-1" d="M60.11,50.48c-1.33-1.71-3.12-3.01-5.16-3.74-.09-.04-.18-.07-.29-.09,1.49-.74,2.78-1.84,3.76-3.19,1.1-1.54,1.69-3.41,1.66-5.31.03-2.95-1.44-5.72-3.88-7.38-2.59-1.93-6.6-2.9-12.02-2.9h-21.01v39.33h22.13c5.44,0,9.56-.95,12.39-2.86,2.73-1.72,4.34-4.76,4.25-7.98.05-2.1-.59-4.17-1.83-5.87M36.21,37.14h6.18c1.15-.08,2.29.17,3.28.73.71.5,1.1,1.33,1.05,2.18.04.85-.35,1.66-1.05,2.17-.99.59-2.14.85-3.29.76h-6.18v-5.84h.01ZM47.48,57.15c-.99.59-2.13.86-3.28.78h-7.98v-6.18h7.97c1.15-.08,2.3.2,3.28.78.73.52,1.15,1.4,1.1,2.3.05.9-.37,1.78-1.1,2.3"/>
      <path id="Path_13" data-name="Path 13" class="cls-2" d="M71.49,67.59c-1.36.04-2.68-.48-3.66-1.42-.99-.95-1.53-2.27-1.48-3.65-.05-1.37.48-2.69,1.48-3.62,2.1-1.82,5.23-1.82,7.33,0,.99.94,1.54,2.26,1.48,3.62.04,1.37-.5,2.69-1.48,3.65-.98.94-2.3,1.46-3.66,1.42"/>
    </g>
  </g>
</svg>