<svg xmlns="http://www.w3.org/2000/svg" xmlns:xlink="http://www.w3.org/1999/xlink" width="68.822" height="30.53" viewBox="0 0 68.822 30.53">
  <defs>
    <clipPath id="clip-path">
      <rect id="Rectangle_25" data-name="Rectangle 25" width="68.822" height="30.53" fill="none"/>
    </clipPath>
  </defs>
  <g id="Group_4" data-name="Group 4" transform="translate(0 0)">
    <g id="Group_3" data-name="Group 3" transform="translate(0 0)" clip-path="url(#clip-path)">
      <path id="Path_11" data-name="Path 11" d="M28.268,17.306a8.689,8.689,0,0,0-3.953-2.858,1.862,1.862,0,0,0-.219-.075,7.991,7.991,0,0,0,2.884-2.441A6.827,6.827,0,0,0,28.248,7.87,6.773,6.773,0,0,0,25.28,2.217Q22.312,0,16.078,0H0V30.1H16.938q6.234,0,9.481-2.192A6.957,6.957,0,0,0,29.665,21.8a7.309,7.309,0,0,0-1.4-4.495M9.973,7.094h4.733a4.45,4.45,0,0,1,2.515.562,1.919,1.919,0,0,1,.8,1.675,1.936,1.936,0,0,1-.8,1.656,4.317,4.317,0,0,1-2.515.582H9.973ZM18.593,22.4a4.3,4.3,0,0,1-2.515.6H9.973V18.275h6.105a4.3,4.3,0,0,1,2.515.6,2.028,2.028,0,0,1,.84,1.76,2.03,2.03,0,0,1-.84,1.765" transform="translate(0 0)" fill="#fff"/>
      <path id="Path_12" data-name="Path 12" d="M103.837,20.859a11.268,11.268,0,0,0-4.728-4.082A14.965,14.965,0,0,0,92.682,15.4a14.789,14.789,0,0,0-6.816,1.546,11.942,11.942,0,0,0-4.773,4.3,11.547,11.547,0,0,0-1.74,6.319,11.44,11.44,0,0,0,1.76,6.259,12.162,12.162,0,0,0,4.967,4.365,18.835,18.835,0,0,0,13.542.621A11.168,11.168,0,0,0,103.857,36l-5.071-5.121a10.261,10.261,0,0,1-2.218,1.293,7.129,7.129,0,0,1-2.685.427,6.21,6.21,0,0,1-2.709-.537,3.827,3.827,0,0,1-1.72-1.611,4.122,4.122,0,0,1-.278-.6h16.316c.025-.343.055-.726.085-1.139s.045-.8.045-1.143a11.955,11.955,0,0,0-1.785-6.707m-14.87,4.3a4.491,4.491,0,0,1,.358-1.094,3.525,3.525,0,0,1,1.353-1.506,3.944,3.944,0,0,1,2.088-.537,3.82,3.82,0,0,1,2.063.537,3.722,3.722,0,0,1,1.352,1.506,4.12,4.12,0,0,1,.378,1.094Z" transform="translate(-47.665 -9.25)" fill="#fff"/>
      <path id="Path_13" data-name="Path 13" d="M156.559,64.541a3.89,3.89,0,0,1-2.8-1.089,3.7,3.7,0,0,1-1.133-2.789,3.59,3.59,0,0,1,1.133-2.774,4.287,4.287,0,0,1,5.608,0,3.591,3.591,0,0,1,1.134,2.774,3.7,3.7,0,0,1-1.134,2.789,3.891,3.891,0,0,1-2.8,1.089" transform="translate(-91.675 -34.145)" fill="#b689f2"/>
    </g>
  </g>
</svg>
