<svg id="Group_6" data-name="Group 6" xmlns="http://www.w3.org/2000/svg" xmlns:xlink="http://www.w3.org/1999/xlink" width="989.4" height="1143.02" viewBox="0 0 989.4 1143.02">
  <defs>
    <clipPath id="clip-path">
      <rect id="Rectangle_26" data-name="Rectangle 26" width="989.4" height="1143.02" fill="none"/>
    </clipPath>
  </defs>
  <g id="Group_5" data-name="Group 5" clip-path="url(#clip-path)">
    <path id="Path_14" data-name="Path 14" d="M406.727,1054.417q-20.015-28.675-56.727-43.793a26.076,26.076,0,0,0-3.14-1.142c17.554-9.825,31.325-22.239,41.386-37.395q18.2-27.3,18.2-62.223,0-52.666-42.6-86.6T231.764,789.3H1v461.079H244.108q89.48,0,136.075-33.586,46.666-33.587,46.595-93.526Q426.778,1083.054,406.727,1054.417ZM144.139,897.983h67.931c16.412,0,28.47,2.893,36.106,8.606,7.564,5.712,11.417,14.242,11.417,25.666,0,10.968-3.853,19.421-11.417,25.362q-11.453,8.911-36.106,8.911H144.139Zm123.731,234.5q-11.987,9.253-36.106,9.216H144.139v-72.43h87.625c16.055,0,28.114,3.046,36.106,9.215,8.064,6.17,12.059,15.157,12.059,26.961C279.929,1117.326,275.933,1126.313,267.869,1132.482Z" transform="translate(-0.199 -114.839)" fill="none" stroke="#fff" stroke-miterlimit="10" stroke-width="2"/>
    <path id="Path_15" data-name="Path 15" d="M920.533,983.176q-25.581-41.47-67.859-62.527-42.278-21.135-92.263-21.1-54.373,0-97.828,23.686a175.863,175.863,0,0,0-68.5,65.88q-25.046,42.154-24.974,96.8,0,53.351,25.26,95.887,25.366,42.5,71.284,66.869,46.024,24.333,107.675,24.371,50.628,0,86.7-14.851a160.063,160.063,0,0,0,60.795-43.107l-72.783-78.446c-11.131,8.835-21.692,15.385-31.824,19.8-10.061,4.418-22.906,6.551-38.532,6.551-15.27,0-28.185-2.742-38.888-8.225a56.574,56.574,0,0,1-24.689-24.677,65.585,65.585,0,0,1-4-9.216H944.294c.357-5.254.785-11.12,1.213-17.441.428-6.4.643-12.186.643-17.516Q946.15,1024.684,920.533,983.176Zm-213.424,65.88a71.963,71.963,0,0,1,5.137-16.755,52.908,52.908,0,0,1,19.409-23.077c8.492-5.484,18.409-8.225,29.969-8.225,11.488,0,21.407,2.741,29.613,8.225s14.7,13.176,19.409,23.077a65.906,65.906,0,0,1,5.422,16.755Z" transform="translate(-113.487 -130.88)" fill="none" stroke="#fff" stroke-miterlimit="10" stroke-width="2"/>
    <path id="Path_16" data-name="Path 16" d="M1150.177,1314.168q-23.983,0-40.246-16.679t-16.267-42.729q0-26.5,16.267-42.495t40.246-15.995q23.973,0,40.242,15.995t16.27,42.495q0,26.05-16.27,42.729T1150.177,1314.168Z" transform="translate(-218.09 -174.052)" fill="none" stroke="#fff" stroke-miterlimit="10" stroke-width="2"/>
    <path id="Path_17" data-name="Path 17" d="M406.727,266.116Q386.711,237.441,350,222.324a25.913,25.913,0,0,0-3.14-1.142c17.554-9.826,31.325-22.239,41.386-37.395q18.2-27.3,18.2-62.224,0-52.666-42.6-86.6T231.764,1H1V462.078H244.108q89.48,0,136.075-33.586,46.666-33.587,46.595-93.526Q426.778,294.753,406.727,266.116ZM144.139,109.682h67.931q24.618,0,36.106,8.607c7.564,5.712,11.417,14.242,11.417,25.665,0,10.968-3.853,19.421-11.417,25.362q-11.453,8.912-36.106,8.911H144.139Zm123.731,234.5q-11.987,9.253-36.106,9.216H144.139v-72.43h87.625c16.055,0,28.114,3.046,36.106,9.215,8.064,6.17,12.059,15.156,12.059,26.961C279.929,329.025,275.933,338.012,267.869,344.181Z" transform="translate(-0.199 -0.145)" fill="none" stroke="#fff" stroke-miterlimit="10" stroke-width="2"/>
    <path id="Path_18" data-name="Path 18" d="M920.533,194.876q-25.581-41.469-67.859-62.528-42.278-21.135-92.263-21.1-54.373,0-97.828,23.686a175.863,175.863,0,0,0-68.5,65.88q-25.046,42.154-24.974,96.8,0,53.351,25.26,95.887,25.366,42.5,71.284,66.869,46.024,24.333,107.675,24.371,50.628,0,86.7-14.851a160.064,160.064,0,0,0,60.795-43.107l-72.783-78.446c-11.131,8.835-21.692,15.385-31.824,19.8-10.061,4.418-22.906,6.551-38.532,6.551-15.27,0-28.185-2.742-38.888-8.225A56.574,56.574,0,0,1,714.1,341.791a65.581,65.581,0,0,1-4-9.216H944.294c.357-5.254.785-11.12,1.213-17.44.428-6.4.643-12.186.643-17.517Q946.15,236.384,920.533,194.876Zm-213.424,65.88A71.964,71.964,0,0,1,712.247,244a52.908,52.908,0,0,1,19.409-23.077c8.492-5.484,18.409-8.225,29.969-8.225,11.488,0,21.407,2.741,29.613,8.225S805.936,234.1,810.646,244a65.907,65.907,0,0,1,5.422,16.755Z" transform="translate(-113.487 -16.187)" fill="none" stroke="#fff" stroke-miterlimit="10" stroke-width="2"/>
    <path id="Path_19" data-name="Path 19" d="M1150.177,525.868q-23.983,0-40.246-16.679t-16.267-42.729q0-26.5,16.267-42.495t40.246-15.995q23.973,0,40.242,15.995t16.27,42.495q0,26.05-16.27,42.729T1150.177,525.868Z" transform="translate(-218.09 -59.358)" fill="none" stroke="#fff" stroke-miterlimit="10" stroke-width="2"/>
    <path id="Path_20" data-name="Path 20" d="M406.727,726.313Q386.711,697.639,350,682.521a26.036,26.036,0,0,0-3.14-1.143c17.554-9.825,31.325-22.239,41.386-37.395q18.2-27.3,18.2-62.223,0-52.666-42.6-86.6T231.764,461.2H1V922.275H244.108q89.48,0,136.075-33.586,46.666-33.587,46.595-93.526,0-40.213-20.051-68.849M144.139,569.879h67.931c16.412,0,28.47,2.893,36.106,8.606,7.564,5.712,11.417,14.242,11.417,25.666,0,10.968-3.853,19.421-11.417,25.362q-11.453,8.911-36.106,8.911H144.139Zm123.731,234.5q-11.987,9.253-36.106,9.216H144.139v-72.43h87.625c16.055,0,28.114,3.046,36.106,9.215,8.064,6.17,12.059,15.156,12.059,26.961,0,11.881-4,20.869-12.059,27.037" transform="translate(-0.199 -67.102)"/>
    <path id="Path_21" data-name="Path 21" d="M406.727,726.313Q386.711,697.639,350,682.521a26.036,26.036,0,0,0-3.14-1.143c17.554-9.825,31.325-22.239,41.386-37.395q18.2-27.3,18.2-62.223,0-52.666-42.6-86.6T231.764,461.2H1V922.275H244.108q89.48,0,136.075-33.586,46.666-33.587,46.595-93.526Q426.778,754.95,406.727,726.313ZM144.139,569.879h67.931c16.412,0,28.47,2.893,36.106,8.606,7.564,5.712,11.417,14.242,11.417,25.666,0,10.968-3.853,19.421-11.417,25.362q-11.453,8.911-36.106,8.911H144.139Zm123.731,234.5q-11.987,9.253-36.106,9.216H144.139v-72.43h87.625c16.055,0,28.114,3.046,36.106,9.215,8.064,6.17,12.059,15.156,12.059,26.961C279.929,789.222,275.933,798.209,267.869,804.378Z" transform="translate(-0.199 -67.102)" fill="none" stroke="#fff" stroke-miterlimit="10" stroke-width="2"/>
    <path id="Path_22" data-name="Path 22" d="M920.533,655.073q-25.581-41.47-67.859-62.528-42.278-21.135-92.263-21.1-54.373,0-97.828,23.686a175.862,175.862,0,0,0-68.5,65.88q-25.046,42.154-24.974,96.8,0,53.351,25.26,95.887,25.366,42.5,71.284,66.869,46.024,24.333,107.675,24.371,50.628,0,86.7-14.851a160.063,160.063,0,0,0,60.795-43.107l-72.783-78.446c-11.131,8.835-21.692,15.385-31.824,19.8-10.061,4.418-22.906,6.551-38.532,6.551-15.27,0-28.185-2.742-38.888-8.225A56.573,56.573,0,0,1,714.1,801.988a65.581,65.581,0,0,1-4-9.216H944.294c.357-5.255.785-11.12,1.213-17.44.428-6.4.643-12.186.643-17.516q0-61.235-25.617-102.742m-213.424,65.88a71.963,71.963,0,0,1,5.137-16.755,52.909,52.909,0,0,1,19.409-23.077c8.492-5.484,18.409-8.225,29.969-8.225,11.488,0,21.407,2.741,29.613,8.225s14.7,13.176,19.409,23.077a65.906,65.906,0,0,1,5.422,16.755Z" transform="translate(-113.487 -83.143)"/>
    <path id="Path_23" data-name="Path 23" d="M920.533,655.073q-25.581-41.47-67.859-62.528-42.278-21.135-92.263-21.1-54.373,0-97.828,23.686a175.862,175.862,0,0,0-68.5,65.88q-25.046,42.154-24.974,96.8,0,53.351,25.26,95.887,25.366,42.5,71.284,66.869,46.024,24.333,107.675,24.371,50.628,0,86.7-14.851a160.063,160.063,0,0,0,60.795-43.107l-72.783-78.446c-11.131,8.835-21.692,15.385-31.824,19.8-10.061,4.418-22.906,6.551-38.532,6.551-15.27,0-28.185-2.742-38.888-8.225A56.573,56.573,0,0,1,714.1,801.988a65.581,65.581,0,0,1-4-9.216H944.294c.357-5.255.785-11.12,1.213-17.44.428-6.4.643-12.186.643-17.516Q946.15,696.581,920.533,655.073Zm-213.424,65.88a71.963,71.963,0,0,1,5.137-16.755,52.909,52.909,0,0,1,19.409-23.077c8.492-5.484,18.409-8.225,29.969-8.225,11.488,0,21.407,2.741,29.613,8.225s14.7,13.176,19.409,23.077a65.906,65.906,0,0,1,5.422,16.755Z" transform="translate(-113.487 -83.143)" fill="none" stroke="#fff" stroke-miterlimit="10" stroke-width="2"/>
    <path id="Path_24" data-name="Path 24" d="M1150.177,986.065q-23.983,0-40.246-16.679t-16.267-42.729q0-26.5,16.267-42.495t40.246-15.995q23.973,0,40.242,15.995t16.27,42.495q0,26.05-16.27,42.729t-40.242,16.679" transform="translate(-218.09 -126.314)"/>
    <path id="Path_25" data-name="Path 25" d="M1150.177,986.065q-23.983,0-40.246-16.679t-16.267-42.729q0-26.5,16.267-42.495t40.246-15.995q23.973,0,40.242,15.995t16.27,42.495q0,26.05-16.27,42.729T1150.177,986.065Z" transform="translate(-218.09 -126.314)" fill="none" stroke="#fff" stroke-miterlimit="10" stroke-width="2"/>
  </g>
</svg>
