<?xml version="1.0" encoding="UTF-8"?>
<svg id="Group_6" data-name="Group 6" xmlns="http://www.w3.org/2000/svg" viewBox="0 0 989.8 469.7">
  <defs>
    <style>
      .cls-1 {
        fill: none;
        stroke: #fff;
        stroke-miterlimit: 10;
        stroke-width: 2px;
      }
    </style>
  </defs>
  <g id="Group_5" data-name="Group 5">
    <path id="Path_17" data-name="Path 17" class="cls-1" d="M406.73,266.12c-13.34-19.12-32.25-33.71-56.73-43.79-1.02-.45-2.07-.83-3.14-1.14,17.55-9.83,31.33-22.24,41.39-37.4,12.13-18.2,18.2-38.94,18.2-62.22,0-35.11-14.2-63.98-42.6-86.6C335.45,12.34,291.42,1.02,231.76,1H1v461.08h243.11c59.65,0,105.01-11.2,136.07-33.59,31.11-22.39,46.64-53.57,46.6-93.53,0-26.81-6.68-49.76-20.05-68.85ZM144.14,109.68h67.93c16.41,0,28.45,2.87,36.11,8.61,7.56,5.71,11.42,14.24,11.42,25.67s-3.85,19.42-11.42,25.36c-7.64,5.94-19.67,8.91-36.11,8.91h-67.93v-68.55ZM267.87,344.18c-7.99,6.17-20.03,9.24-36.11,9.22h-87.62v-72.43h87.62c16.05,0,28.11,3.05,36.11,9.21,8.06,6.17,12.06,15.16,12.06,26.96s-4,20.87-12.06,27.04h0Z"/>
    <path id="Path_18" data-name="Path 18" class="cls-1" d="M807.25,178.83c-17.05-27.65-39.67-48.49-67.86-62.53-28.19-14.09-58.94-21.12-92.26-21.1-36.25,0-68.86,7.9-97.83,23.69-28.45,15.26-52.15,38.05-68.5,65.88-16.7,28.1-25.02,60.37-24.97,96.8,0,35.57,8.42,67.53,25.26,95.89,16.91,28.33,40.67,50.62,71.28,66.87,30.68,16.22,66.57,24.35,107.67,24.37,33.75,0,62.65-4.95,86.7-14.85,23.37-9.39,44.2-24.15,60.79-43.11l-72.78-78.45c-11.13,8.83-21.69,15.39-31.82,19.8-10.06,4.42-22.91,6.55-38.53,6.55s-28.18-2.74-38.89-8.23c-10.63-5.42-19.27-14.05-24.7-24.67-1.57-2.97-2.9-6.05-4-9.22h234.19c.36-5.25.78-11.12,1.21-17.44.43-6.4.64-12.19.64-17.52,0-40.82-8.54-75.07-25.62-102.74ZM593.82,244.71c1.02-5.77,2.75-11.4,5.14-16.76,4.09-9.41,10.84-17.43,19.41-23.08,8.49-5.48,18.41-8.23,29.97-8.23s21.41,2.74,29.61,8.23,14.7,13.18,19.41,23.08c2.55,5.32,4.37,10.95,5.42,16.76h-108.96Z"/>
    <path id="Path_19" data-name="Path 19" class="cls-1" d="M932.29,466.65c-15.99,0-29.4-5.56-40.25-16.68-10.84-11.12-16.26-25.36-16.27-42.73,0-17.67,5.42-31.83,16.27-42.49,10.84-10.66,24.26-15.99,40.25-15.99s29.4,5.33,40.24,15.99,16.27,24.83,16.27,42.49c0,17.37-5.42,31.61-16.27,42.73-10.85,11.12-24.26,16.68-40.24,16.68Z"/>
  </g>
</svg>